<svg width="116" height="123" viewBox="0 0 116 123" fill="none" xmlns="http://www.w3.org/2000/svg">
<path d="M25.27 86.92C23.46 86.92 22.01 85.46 22.01 83.66C22.01 81.86 23.48 80.4 25.27 80.4H46.76C48.57 80.4 50.02 81.86 50.02 83.66C50.02 85.46 48.56 86.92 46.76 86.92H25.27ZM61.1 77.47C60.14 77.47 59.32 76.65 59.32 75.65C59.32 74.69 60.14 73.87 61.1 73.87H65.75C65.79 73.87 65.89 73.87 65.93 73.87C67.57 73.91 69.03 74.23 70.26 75.01C71.63 75.88 72.63 77.2 73.18 79.16C73.18 79.2 73.18 79.25 73.23 79.3L73.69 81.12H113.58C114.58 81.12 115.36 81.94 115.36 82.9C115.36 83.08 115.31 83.26 115.27 83.45L110.62 102.19C110.44 103.01 109.71 103.56 108.89 103.56H79.71C80.35 105.93 80.99 107.21 81.85 107.8C82.9 108.48 84.72 108.53 87.78 108.48H87.82H108.43C109.43 108.48 110.21 109.3 110.21 110.26C110.21 111.26 109.39 112.04 108.43 112.04H87.81C84.02 112.08 81.7 111.99 79.83 110.76C77.91 109.48 76.91 107.3 75.91 103.33L69.8 80.2C69.8 80.15 69.8 80.15 69.76 80.11C69.49 79.11 69.03 78.42 68.39 78.06C67.75 77.65 66.89 77.47 65.88 77.47C65.83 77.47 65.79 77.47 65.74 77.47H61.1ZM103.09 114.13C105.51 114.13 107.47 116.09 107.47 118.51C107.47 120.93 105.51 122.89 103.09 122.89C100.67 122.89 98.71 120.93 98.71 118.51C98.71 116.09 100.67 114.13 103.09 114.13ZM83.89 114.13C86.31 114.13 88.27 116.09 88.27 118.51C88.27 120.93 86.31 122.89 83.89 122.89C81.47 122.89 79.51 120.93 79.51 118.51C79.51 116.09 81.48 114.13 83.89 114.13ZM25.27 33.58C23.46 33.58 22.01 32.11 22.01 30.32C22.01 28.52 23.48 27.06 25.27 27.06H75.79C77.6 27.06 79.05 28.52 79.05 30.32C79.05 32.12 77.59 33.58 75.79 33.58H25.27ZM7.57 0H93.2C95.29 0 97.19 0.85 98.55 2.21C99.91 3.57 100.76 5.47 100.76 7.56V67.54H94.26V7.59C94.26 7.3 94.14 7.03 93.95 6.83C93.75 6.64 93.48 6.52 93.19 6.52H7.57C7.28 6.52 7.01 6.64 6.81 6.83C6.61 7.02 6.51 7.3 6.51 7.59V106.26C6.51 106.55 6.63 106.82 6.82 107.02C7.01 107.22 7.28 107.33 7.58 107.33H62.63C63.24 109.72 63.93 111.81 64.86 113.8H7.57C5.48 113.8 3.58 112.95 2.22 111.59C0.85 110.24 0 108.34 0 106.25V7.57C0 5.48 0.85 3.57 2.21 2.21C3.57 0.85 5.48 0 7.57 0ZM25.27 60.25C23.46 60.25 22.01 58.79 22.01 56.99C22.01 55.19 23.48 53.73 25.27 53.73H75.79C77.6 53.73 79.05 55.19 79.05 56.99C79.05 58.79 77.59 60.25 75.79 60.25H25.27Z" fill="white"/>
</svg>
